STARTFONT 2.1
COMMENT All rights reversed
FONT atari-3x5
SIZE 6 72 72
FONTBOUNDINGBOX 4 6 0 -1
STARTPROPERTIES 11
FOUNDRY "Fine"
FAMILY_NAME ""
WEIGHT_NAME "Medium"
SLANT "R"
SETWIDTH_NAME "Normal"
SPACING "c"
CHARSET_REGISTRY "ISO-8859"
CHARSET_ENCODING "1"
COPYRIGHT "Public domain font"
FONT_ASCENT  5
FONT_DESCENT 1
ENDPROPERTIES
CHARS 128
STARTCHAR C000
ENCODING 0
SWIDTH 666 0
DWIDTH 4 0
BBX 0 0 0 0
BITMAP
ENDCHAR
STARTCHAR C001
ENCODING 1
SWIDTH 666 0
DWIDTH 4 0
BBX 4 3 0 1
BITMAP
60
f0
60
ENDCHAR
STARTCHAR C002
ENCODING 2
SWIDTH 666 0
DWIDTH 4 0
BBX 4 6 0 -1
BITMAP
a0
50
a0
50
a0
50
ENDCHAR
STARTCHAR C003
ENCODING 3
SWIDTH 666 0
DWIDTH 4 0
BBX 4 6 0 -1
BITMAP
a0
e0
a0
70
20
20
ENDCHAR
STARTCHAR C004
ENCODING 4
SWIDTH 666 0
DWIDTH 4 0
BBX 4 6 0 -1
BITMAP
e0
80
f0
c0
60
40
ENDCHAR
STARTCHAR C005
ENCODING 5
SWIDTH 666 0
DWIDTH 4 0
BBX 4 6 0 -1
BITMAP
c0
80
e0
50
60
50
ENDCHAR
STARTCHAR C006
ENCODING 6
SWIDTH 666 0
DWIDTH 4 0
BBX 4 6 0 -1
BITMAP
80
80
f0
40
60
40
ENDCHAR
STARTCHAR C007
ENCODING 7
SWIDTH 666 0
DWIDTH 4 0
BBX 3 3 0 2
BITMAP
40
a0
40
ENDCHAR
STARTCHAR C010
ENCODING 8
SWIDTH 666 0
DWIDTH 4 0
BBX 3 5 0 0
BITMAP
40
e0
40
00
e0
ENDCHAR
STARTCHAR C011
ENCODING 9
SWIDTH 666 0
DWIDTH 4 0
BBX 4 6 0 -1
BITMAP
a0
e0
e0
a0
40
70
ENDCHAR
STARTCHAR C012
ENCODING 10
SWIDTH 666 0
DWIDTH 4 0
BBX 4 6 0 -1
BITMAP
a0
a0
40
30
10
10
ENDCHAR
STARTCHAR C013
ENCODING 11
SWIDTH 666 0
DWIDTH 4 0
BBX 3 4 0 1
BITMAP
20
20
20
e0
ENDCHAR
STARTCHAR C014
ENCODING 12
SWIDTH 666 0
DWIDTH 4 0
BBX 3 3 0 -1
BITMAP
e0
20
20
ENDCHAR
STARTCHAR C015
ENCODING 13
SWIDTH 666 0
DWIDTH 4 0
BBX 2 3 2 -1
BITMAP
c0
80
80
ENDCHAR
STARTCHAR C016
ENCODING 14
SWIDTH 666 0
DWIDTH 4 0
BBX 2 4 2 1
BITMAP
80
80
80
c0
ENDCHAR
STARTCHAR C017
ENCODING 15
SWIDTH 666 0
DWIDTH 4 0
BBX 4 6 0 -1
BITMAP
20
20
20
f0
20
20
ENDCHAR
STARTCHAR C020
ENCODING 16
SWIDTH 666 0
DWIDTH 4 0
BBX 4 1 0 4
BITMAP
f0
ENDCHAR
STARTCHAR C021
ENCODING 17
SWIDTH 666 0
DWIDTH 4 0
BBX 4 1 0 3
BITMAP
f0
ENDCHAR
STARTCHAR C022
ENCODING 18
SWIDTH 666 0
DWIDTH 4 0
BBX 4 1 0 1
BITMAP
f0
ENDCHAR
STARTCHAR C023
ENCODING 19
SWIDTH 666 0
DWIDTH 4 0
BBX 4 1 0 0
BITMAP
f0
ENDCHAR
STARTCHAR C024
ENCODING 20
SWIDTH 666 0
DWIDTH 4 0
BBX 4 1 0 -1
BITMAP
f0
ENDCHAR
STARTCHAR C025
ENCODING 21
SWIDTH 666 0
DWIDTH 4 0
BBX 2 6 2 -1
BITMAP
80
80
80
c0
80
80
ENDCHAR
STARTCHAR C026
ENCODING 22
SWIDTH 666 0
DWIDTH 4 0
BBX 2 6 0 -1
BITMAP
40
40
40
c0
40
40
ENDCHAR
STARTCHAR C027
ENCODING 23
SWIDTH 666 0
DWIDTH 4 0
BBX 4 3 0 2
BITMAP
20
20
f0
ENDCHAR
STARTCHAR C030
ENCODING 24
SWIDTH 666 0
DWIDTH 4 0
BBX 4 4 0 -1
BITMAP
f0
20
20
20
ENDCHAR
STARTCHAR C031
ENCODING 25
SWIDTH 666 0
DWIDTH 4 0
BBX 1 6 2 -1
BITMAP
80
80
80
80
80
80
ENDCHAR
STARTCHAR C032
ENCODING 26
SWIDTH 666 0
DWIDTH 4 0
BBX 3 5 0 0
BITMAP
40
80
40
00
e0
ENDCHAR
STARTCHAR C033
ENCODING 27
SWIDTH 666 0
DWIDTH 4 0
BBX 3 5 0 0
BITMAP
80
40
80
00
e0
ENDCHAR
STARTCHAR C034
ENCODING 28
SWIDTH 666 0
DWIDTH 4 0
BBX 4 4 0 0
BITMAP
e0
a0
a0
b0
ENDCHAR
STARTCHAR C035
ENCODING 29
SWIDTH 666 0
DWIDTH 4 0
BBX 3 5 0 0
BITMAP
20
e0
40
e0
80
ENDCHAR
STARTCHAR C036
ENCODING 30
SWIDTH 666 0
DWIDTH 4 0
BBX 3 5 0 0
BITMAP
60
80
c0
80
e0
ENDCHAR
STARTCHAR C037
ENCODING 31
SWIDTH 666 0
DWIDTH 4 0
BBX 2 2 1 1
BITMAP
c0
c0
ENDCHAR
STARTCHAR C040
ENCODING 32
SWIDTH 666 0
DWIDTH 4 0
BBX 0 0 0 0
BITMAP
ENDCHAR
STARTCHAR C041
ENCODING 33
SWIDTH 666 0
DWIDTH 4 0
BBX 3 5 0 0
BITMAP
40
e0
40
00
40
ENDCHAR
STARTCHAR C042
ENCODING 34
SWIDTH 666 0
DWIDTH 4 0
BBX 3 2 0 3
BITMAP
a0
a0
ENDCHAR
STARTCHAR C043
ENCODING 35
SWIDTH 666 0
DWIDTH 4 0
BBX 3 5 0 0
BITMAP
a0
e0
a0
e0
a0
ENDCHAR
STARTCHAR C044
ENCODING 36
SWIDTH 666 0
DWIDTH 4 0
BBX 3 6 0 -1
BITMAP
40
60
c0
60
c0
40
ENDCHAR
STARTCHAR C045
ENCODING 37
SWIDTH 666 0
DWIDTH 4 0
BBX 3 5 0 0
BITMAP
a0
20
40
80
a0
ENDCHAR
STARTCHAR C046
ENCODING 38
SWIDTH 666 0
DWIDTH 4 0
BBX 3 5 0 0
BITMAP
60
80
a0
40
a0
ENDCHAR
STARTCHAR C047
ENCODING 39
SWIDTH 666 0
DWIDTH 4 0
BBX 2 3 0 2
BITMAP
40
40
80
ENDCHAR
STARTCHAR C050
ENCODING 40
SWIDTH 666 0
DWIDTH 4 0
BBX 2 5 0 0
BITMAP
40
80
80
80
40
ENDCHAR
STARTCHAR C051
ENCODING 41
SWIDTH 666 0
DWIDTH 4 0
BBX 2 5 0 0
BITMAP
80
40
40
40
80
ENDCHAR
STARTCHAR C052
ENCODING 42
SWIDTH 666 0
DWIDTH 4 0
BBX 3 5 0 0
BITMAP
a0
40
e0
40
a0
ENDCHAR
STARTCHAR C053
ENCODING 43
SWIDTH 666 0
DWIDTH 4 0
BBX 3 5 0 0
BITMAP
40
40
e0
40
40
ENDCHAR
STARTCHAR C054
ENCODING 44
SWIDTH 666 0
DWIDTH 4 0
BBX 2 3 0 -1
BITMAP
40
40
80
ENDCHAR
STARTCHAR C055
ENCODING 45
SWIDTH 666 0
DWIDTH 4 0
BBX 3 1 0 2
BITMAP
e0
ENDCHAR
STARTCHAR C056
ENCODING 46
SWIDTH 666 0
DWIDTH 4 0
BBX 1 2 1 0
BITMAP
80
80
ENDCHAR
STARTCHAR C057
ENCODING 47
SWIDTH 666 0
DWIDTH 4 0
BBX 3 5 0 0
BITMAP
20
20
40
80
80
ENDCHAR
STARTCHAR C060
ENCODING 48
SWIDTH 666 0
DWIDTH 4 0
BBX 3 5 0 0
BITMAP
40
a0
e0
a0
40
ENDCHAR
STARTCHAR C061
ENCODING 49
SWIDTH 666 0
DWIDTH 4 0
BBX 3 5 0 0
BITMAP
40
c0
40
40
e0
ENDCHAR
STARTCHAR C062
ENCODING 50
SWIDTH 666 0
DWIDTH 4 0
BBX 3 5 0 0
BITMAP
c0
20
40
80
e0
ENDCHAR
STARTCHAR C063
ENCODING 51
SWIDTH 666 0
DWIDTH 4 0
BBX 3 5 0 0
BITMAP
c0
20
40
20
c0
ENDCHAR
STARTCHAR C064
ENCODING 52
SWIDTH 666 0
DWIDTH 4 0
BBX 3 5 0 0
BITMAP
60
a0
e0
20
20
ENDCHAR
STARTCHAR C065
ENCODING 53
SWIDTH 666 0
DWIDTH 4 0
BBX 3 5 0 0
BITMAP
e0
80
c0
20
c0
ENDCHAR
STARTCHAR C066
ENCODING 54
SWIDTH 666 0
DWIDTH 4 0
BBX 3 5 0 0
BITMAP
60
80
c0
a0
40
ENDCHAR
STARTCHAR C067
ENCODING 55
SWIDTH 666 0
DWIDTH 4 0
BBX 3 5 0 0
BITMAP
e0
20
40
40
40
ENDCHAR
STARTCHAR C070
ENCODING 56
SWIDTH 666 0
DWIDTH 4 0
BBX 3 5 0 0
BITMAP
40
a0
40
a0
40
ENDCHAR
STARTCHAR C071
ENCODING 57
SWIDTH 666 0
DWIDTH 4 0
BBX 3 5 0 0
BITMAP
40
a0
60
20
40
ENDCHAR
STARTCHAR C072
ENCODING 58
SWIDTH 666 0
DWIDTH 4 0
BBX 1 3 1 1
BITMAP
80
00
80
ENDCHAR
STARTCHAR C073
ENCODING 59
SWIDTH 666 0
DWIDTH 4 0
BBX 2 5 0 0
BITMAP
40
00
40
40
80
ENDCHAR
STARTCHAR C074
ENCODING 60
SWIDTH 666 0
DWIDTH 4 0
BBX 3 5 0 0
BITMAP
20
40
80
40
20
ENDCHAR
STARTCHAR C075
ENCODING 61
SWIDTH 666 0
DWIDTH 4 0
BBX 3 3 0 1
BITMAP
e0
00
e0
ENDCHAR
STARTCHAR C076
ENCODING 62
SWIDTH 666 0
DWIDTH 4 0
BBX 3 5 0 0
BITMAP
80
40
20
40
80
ENDCHAR
STARTCHAR C077
ENCODING 63
SWIDTH 666 0
DWIDTH 4 0
BBX 3 5 0 0
BITMAP
c0
20
40
00
40
ENDCHAR
STARTCHAR C100
ENCODING 64
SWIDTH 666 0
DWIDTH 4 0
BBX 3 5 0 0
BITMAP
40
a0
a0
80
60
ENDCHAR
STARTCHAR C101
ENCODING 65
SWIDTH 666 0
DWIDTH 4 0
BBX 3 5 0 0
BITMAP
40
a0
e0
a0
a0
ENDCHAR
STARTCHAR C102
ENCODING 66
SWIDTH 666 0
DWIDTH 4 0
BBX 3 5 0 0
BITMAP
c0
a0
c0
a0
c0
ENDCHAR
STARTCHAR C103
ENCODING 67
SWIDTH 666 0
DWIDTH 4 0
BBX 3 5 0 0
BITMAP
60
80
80
80
60
ENDCHAR
STARTCHAR C104
ENCODING 68
SWIDTH 666 0
DWIDTH 4 0
BBX 3 5 0 0
BITMAP
c0
a0
a0
a0
c0
ENDCHAR
STARTCHAR C105
ENCODING 69
SWIDTH 666 0
DWIDTH 4 0
BBX 3 5 0 0
BITMAP
e0
80
c0
80
e0
ENDCHAR
STARTCHAR C106
ENCODING 70
SWIDTH 666 0
DWIDTH 4 0
BBX 3 5 0 0
BITMAP
e0
80
c0
80
80
ENDCHAR
STARTCHAR C107
ENCODING 71
SWIDTH 666 0
DWIDTH 4 0
BBX 3 5 0 0
BITMAP
60
80
a0
a0
60
ENDCHAR
STARTCHAR C110
ENCODING 72
SWIDTH 666 0
DWIDTH 4 0
BBX 3 5 0 0
BITMAP
a0
a0
e0
a0
a0
ENDCHAR
STARTCHAR C111
ENCODING 73
SWIDTH 666 0
DWIDTH 4 0
BBX 3 5 0 0
BITMAP
e0
40
40
40
e0
ENDCHAR
STARTCHAR C112
ENCODING 74
SWIDTH 666 0
DWIDTH 4 0
BBX 3 5 0 0
BITMAP
e0
20
20
a0
40
ENDCHAR
STARTCHAR C113
ENCODING 75
SWIDTH 666 0
DWIDTH 4 0
BBX 3 5 0 0
BITMAP
a0
a0
c0
a0
a0
ENDCHAR
STARTCHAR C114
ENCODING 76
SWIDTH 666 0
DWIDTH 4 0
BBX 3 5 0 0
BITMAP
80
80
80
80
e0
ENDCHAR
STARTCHAR C115
ENCODING 77
SWIDTH 666 0
DWIDTH 4 0
BBX 3 5 0 0
BITMAP
a0
e0
a0
a0
a0
ENDCHAR
STARTCHAR C116
ENCODING 78
SWIDTH 666 0
DWIDTH 4 0
BBX 3 5 0 0
BITMAP
a0
e0
e0
a0
a0
ENDCHAR
STARTCHAR C117
ENCODING 79
SWIDTH 666 0
DWIDTH 4 0
BBX 3 5 0 0
BITMAP
40
a0
a0
a0
40
ENDCHAR
STARTCHAR C120
ENCODING 80
SWIDTH 666 0
DWIDTH 4 0
BBX 3 5 0 0
BITMAP
c0
a0
c0
80
80
ENDCHAR
STARTCHAR C121
ENCODING 81
SWIDTH 666 0
DWIDTH 4 0
BBX 3 6 0 -1
BITMAP
40
a0
a0
a0
40
20
ENDCHAR
STARTCHAR C122
ENCODING 82
SWIDTH 666 0
DWIDTH 4 0
BBX 3 5 0 0
BITMAP
c0
a0
c0
a0
a0
ENDCHAR
STARTCHAR C123
ENCODING 83
SWIDTH 666 0
DWIDTH 4 0
BBX 3 5 0 0
BITMAP
60
80
40
20
c0
ENDCHAR
STARTCHAR C124
ENCODING 84
SWIDTH 666 0
DWIDTH 4 0
BBX 3 5 0 0
BITMAP
e0
40
40
40
40
ENDCHAR
STARTCHAR C125
ENCODING 85
SWIDTH 666 0
DWIDTH 4 0
BBX 3 5 0 0
BITMAP
a0
a0
a0
a0
60
ENDCHAR
STARTCHAR C126
ENCODING 86
SWIDTH 666 0
DWIDTH 4 0
BBX 3 5 0 0
BITMAP
a0
a0
a0
a0
40
ENDCHAR
STARTCHAR C127
ENCODING 87
SWIDTH 666 0
DWIDTH 4 0
BBX 3 5 0 0
BITMAP
a0
a0
a0
e0
a0
ENDCHAR
STARTCHAR C130
ENCODING 88
SWIDTH 666 0
DWIDTH 4 0
BBX 3 5 0 0
BITMAP
a0
a0
40
a0
a0
ENDCHAR
STARTCHAR C131
ENCODING 89
SWIDTH 666 0
DWIDTH 4 0
BBX 3 5 0 0
BITMAP
a0
a0
40
40
40
ENDCHAR
STARTCHAR C132
ENCODING 90
SWIDTH 666 0
DWIDTH 4 0
BBX 3 5 0 0
BITMAP
e0
20
40
80
e0
ENDCHAR
STARTCHAR C133
ENCODING 91
SWIDTH 666 0
DWIDTH 4 0
BBX 2 5 0 0
BITMAP
c0
80
80
80
c0
ENDCHAR
STARTCHAR C134
ENCODING 92
SWIDTH 666 0
DWIDTH 4 0
BBX 3 5 0 0
BITMAP
80
80
40
20
20
ENDCHAR
STARTCHAR C135
ENCODING 93
SWIDTH 666 0
DWIDTH 4 0
BBX 2 5 0 0
BITMAP
c0
40
40
40
c0
ENDCHAR
STARTCHAR C136
ENCODING 94
SWIDTH 666 0
DWIDTH 4 0
BBX 3 2 0 3
BITMAP
40
a0
ENDCHAR
STARTCHAR C137
ENCODING 95
SWIDTH 666 0
DWIDTH 4 0
BBX 3 1 0 0
BITMAP
e0
ENDCHAR
STARTCHAR C140
ENCODING 96
SWIDTH 666 0
DWIDTH 4 0
BBX 2 3 0 2
BITMAP
80
80
40
ENDCHAR
STARTCHAR C141
ENCODING 97
SWIDTH 666 0
DWIDTH 4 0
BBX 3 4 0 0
BITMAP
60
a0
a0
60
ENDCHAR
STARTCHAR C142
ENCODING 98
SWIDTH 666 0
DWIDTH 4 0
BBX 3 5 0 0
BITMAP
80
c0
a0
a0
c0
ENDCHAR
STARTCHAR C143
ENCODING 99
SWIDTH 666 0
DWIDTH 4 0
BBX 3 4 0 0
BITMAP
60
80
80
60
ENDCHAR
STARTCHAR C144
ENCODING 100
SWIDTH 666 0
DWIDTH 4 0
BBX 3 5 0 0
BITMAP
20
60
a0
a0
60
ENDCHAR
STARTCHAR C145
ENCODING 101
SWIDTH 666 0
DWIDTH 4 0
BBX 3 4 0 0
BITMAP
40
a0
c0
60
ENDCHAR
STARTCHAR C146
ENCODING 102
SWIDTH 666 0
DWIDTH 4 0
BBX 3 5 0 0
BITMAP
60
80
c0
80
80
ENDCHAR
STARTCHAR C147
ENCODING 103
SWIDTH 666 0
DWIDTH 4 0
BBX 3 5 0 -1
BITMAP
60
a0
60
20
c0
ENDCHAR
STARTCHAR C150
ENCODING 104
SWIDTH 666 0
DWIDTH 4 0
BBX 3 5 0 0
BITMAP
80
c0
a0
a0
a0
ENDCHAR
STARTCHAR C151
ENCODING 105
SWIDTH 666 0
DWIDTH 4 0
BBX 3 5 0 0
BITMAP
40
00
c0
40
e0
ENDCHAR
STARTCHAR C152
ENCODING 106
SWIDTH 666 0
DWIDTH 4 0
BBX 3 6 0 -1
BITMAP
20
00
60
20
a0
40
ENDCHAR
STARTCHAR C153
ENCODING 107
SWIDTH 666 0
DWIDTH 4 0
BBX 3 5 0 0
BITMAP
80
a0
c0
a0
a0
ENDCHAR
STARTCHAR C154
ENCODING 108
SWIDTH 666 0
DWIDTH 4 0
BBX 3 5 0 0
BITMAP
c0
40
40
40
e0
ENDCHAR
STARTCHAR C155
ENCODING 109
SWIDTH 666 0
DWIDTH 4 0
BBX 3 4 0 0
BITMAP
e0
e0
a0
a0
ENDCHAR
STARTCHAR C156
ENCODING 110
SWIDTH 666 0
DWIDTH 4 0
BBX 3 4 0 0
BITMAP
c0
a0
a0
a0
ENDCHAR
STARTCHAR C157
ENCODING 111
SWIDTH 666 0
DWIDTH 4 0
BBX 3 4 0 0
BITMAP
40
a0
a0
40
ENDCHAR
STARTCHAR C160
ENCODING 112
SWIDTH 666 0
DWIDTH 4 0
BBX 3 5 0 -1
BITMAP
c0
a0
a0
c0
80
ENDCHAR
STARTCHAR C161
ENCODING 113
SWIDTH 666 0
DWIDTH 4 0
BBX 3 5 0 -1
BITMAP
60
a0
a0
60
20
ENDCHAR
STARTCHAR C162
ENCODING 114
SWIDTH 666 0
DWIDTH 4 0
BBX 3 4 0 0
BITMAP
c0
a0
80
80
ENDCHAR
STARTCHAR C163
ENCODING 115
SWIDTH 666 0
DWIDTH 4 0
BBX 3 4 0 0
BITMAP
60
c0
20
c0
ENDCHAR
STARTCHAR C164
ENCODING 116
SWIDTH 666 0
DWIDTH 4 0
BBX 3 5 0 0
BITMAP
40
e0
40
40
20
ENDCHAR
STARTCHAR C165
ENCODING 117
SWIDTH 666 0
DWIDTH 4 0
BBX 3 4 0 0
BITMAP
a0
a0
a0
60
ENDCHAR
STARTCHAR C166
ENCODING 118
SWIDTH 666 0
DWIDTH 4 0
BBX 3 4 0 0
BITMAP
a0
a0
a0
40
ENDCHAR
STARTCHAR C167
ENCODING 119
SWIDTH 666 0
DWIDTH 4 0
BBX 3 4 0 0
BITMAP
a0
a0
e0
e0
ENDCHAR
STARTCHAR C170
ENCODING 120
SWIDTH 666 0
DWIDTH 4 0
BBX 3 4 0 0
BITMAP
a0
40
a0
a0
ENDCHAR
STARTCHAR C171
ENCODING 121
SWIDTH 666 0
DWIDTH 4 0
BBX 3 5 0 -1
BITMAP
a0
a0
60
20
c0
ENDCHAR
STARTCHAR C172
ENCODING 122
SWIDTH 666 0
DWIDTH 4 0
BBX 3 4 0 0
BITMAP
e0
20
40
e0
ENDCHAR
STARTCHAR C173
ENCODING 123
SWIDTH 666 0
DWIDTH 4 0
BBX 3 5 0 0
BITMAP
20
40
c0
40
20
ENDCHAR
STARTCHAR C174
ENCODING 124
SWIDTH 666 0
DWIDTH 4 0
BBX 1 5 1 0
BITMAP
80
80
00
80
80
ENDCHAR
STARTCHAR C175
ENCODING 125
SWIDTH 666 0
DWIDTH 4 0
BBX 3 5 0 0
BITMAP
80
40
60
40
80
ENDCHAR
STARTCHAR C176
ENCODING 126
SWIDTH 666 0
DWIDTH 4 0
BBX 4 2 0 3
BITMAP
50
a0
ENDCHAR
STARTCHAR C177
ENCODING 127
SWIDTH 666 0
DWIDTH 4 0
BBX 4 6 0 -1
BITMAP
f0
f0
f0
f0
f0
f0
ENDCHAR
ENDFONT
